<svg xmlns="http://www.w3.org/2000/svg" xmlns:xlink="http://www.w3.org/1999/xlink" version="1.1" x="0px" y="0px" viewBox="0 0 100 125" enable-background="new 0 0 100 100" xml:space="preserve"><path d="M20.258,51.501h55.888l-9.46,9.393c-0.588,0.584-0.591,1.533-0.008,2.121c0.293,0.296,0.679,0.443,1.064,0.443  c0.382,0,0.764-0.146,1.057-0.436l12-11.914c0.588-0.584,0.591-1.533,0.008-2.121L68.895,36.985  c-0.583-0.589-1.533-0.591-2.121-0.008c-0.588,0.583-0.592,1.533-0.008,2.121l9.332,9.402h-55.84c-0.829,0-1.5,0.672-1.5,1.5  S19.429,51.501,20.258,51.501z"/><text x="0" y="115" fill="#000000" font-size="5px" font-weight="bold" font-family="'Helvetica Neue', Helvetica, Arial-Unicode, Arial, Sans-serif">Created by Ema Dimitrova</text><text x="0" y="120" fill="#000000" font-size="5px" font-weight="bold" font-family="'Helvetica Neue', Helvetica, Arial-Unicode, Arial, Sans-serif">from the Noun Project</text></svg>